<mxfile host="app.diagrams.net" agent="Mozilla/5.0 (Windows NT 10.0; Win64; x64) AppleWebKit/537.36 (KHTML, like Gecko) Chrome/131.0.0.0 Safari/537.36" version="25.0.3">
  <diagram id="C5RBs43oDa-KdzZeNtuy" name="Page-1">
    <mxGraphModel dx="3225" dy="1393" grid="1" gridSize="10" guides="1" tooltips="1" connect="1" arrows="1" fold="1" page="1" pageScale="1" pageWidth="827" pageHeight="1169" math="0" shadow="0">
      <root>
        <mxCell id="WIyWlLk6GJQsqaUBKTNV-0" />
        <mxCell id="WIyWlLk6GJQsqaUBKTNV-1" parent="WIyWlLk6GJQsqaUBKTNV-0" />
        <mxCell id="BHG2MApi-rZy6z0oUUmJ-15" value="Airline" style="swimlane;fontStyle=1;align=center;verticalAlign=top;childLayout=stackLayout;horizontal=1;startSize=26;horizontalStack=0;resizeParent=1;resizeParentMax=0;resizeLast=0;collapsible=1;marginBottom=0;whiteSpace=wrap;html=1;" parent="WIyWlLk6GJQsqaUBKTNV-1" vertex="1">
          <mxGeometry x="320" y="211" width="160" height="190" as="geometry" />
        </mxCell>
        <mxCell id="BHG2MApi-rZy6z0oUUmJ-16" value="&lt;span style=&quot;text-wrap-mode: nowrap;&quot;&gt;- Air_ID:Int {key}&lt;/span&gt;&lt;div style=&quot;text-wrap-mode: nowrap;&quot;&gt;- Air_Name: string&lt;/div&gt;&lt;div style=&quot;text-wrap-mode: nowrap;&quot;&gt;- Air_Policy: string&lt;/div&gt;&lt;div style=&quot;text-wrap-mode: nowrap;&quot;&gt;- Air_Email: string&lt;/div&gt;&lt;div style=&quot;text-wrap-mode: nowrap;&quot;&gt;- Air_phoneNum: string&lt;/div&gt;&lt;div style=&quot;text-wrap-mode: nowrap;&quot;&gt;- Air_Website: string&lt;/div&gt;" style="text;strokeColor=none;fillColor=none;align=left;verticalAlign=top;spacingLeft=4;spacingRight=4;overflow=hidden;rotatable=0;points=[[0,0.5],[1,0.5]];portConstraint=eastwest;whiteSpace=wrap;html=1;" parent="BHG2MApi-rZy6z0oUUmJ-15" vertex="1">
          <mxGeometry y="26" width="160" height="104" as="geometry" />
        </mxCell>
        <mxCell id="BHG2MApi-rZy6z0oUUmJ-17" value="" style="line;strokeWidth=1;fillColor=none;align=left;verticalAlign=middle;spacingTop=-1;spacingLeft=3;spacingRight=3;rotatable=0;labelPosition=right;points=[];portConstraint=eastwest;strokeColor=inherit;" parent="BHG2MApi-rZy6z0oUUmJ-15" vertex="1">
          <mxGeometry y="130" width="160" height="60" as="geometry" />
        </mxCell>
        <mxCell id="BHG2MApi-rZy6z0oUUmJ-23" value="ticket" style="swimlane;fontStyle=1;align=center;verticalAlign=top;childLayout=stackLayout;horizontal=1;startSize=26;horizontalStack=0;resizeParent=1;resizeParentMax=0;resizeLast=0;collapsible=1;marginBottom=0;whiteSpace=wrap;html=1;" parent="WIyWlLk6GJQsqaUBKTNV-1" vertex="1">
          <mxGeometry x="640" y="171" width="160" height="270" as="geometry" />
        </mxCell>
        <mxCell id="BHG2MApi-rZy6z0oUUmJ-24" value="&lt;span style=&quot;text-wrap-mode: nowrap;&quot;&gt;- Ticket_ID : Int {key}&lt;/span&gt;&lt;div style=&quot;text-wrap-mode: nowrap;&quot;&gt;&lt;div style=&quot;text-wrap-mode: wrap;&quot;&gt;- flight_no : int&lt;/div&gt;&lt;div style=&quot;text-wrap-mode: wrap;&quot;&gt;- dept_loc : string&lt;/div&gt;&lt;div style=&quot;text-wrap-mode: wrap;&quot;&gt;- dept_date : date&lt;/div&gt;&lt;div style=&quot;text-wrap-mode: wrap;&quot;&gt;- dept_time : time&lt;/div&gt;&lt;div style=&quot;text-wrap-mode: wrap;&quot;&gt;- Arr_loc : string&lt;/div&gt;&lt;div style=&quot;text-wrap-mode: wrap;&quot;&gt;- Arr_date : date&lt;/div&gt;&lt;div style=&quot;text-wrap-mode: wrap;&quot;&gt;- Arr_time : Time&lt;/div&gt;&lt;div style=&quot;text-wrap-mode: wrap;&quot;&gt;- seat_no : int&lt;/div&gt;&lt;div style=&quot;text-wrap-mode: wrap;&quot;&gt;- seat_discreption : string&lt;/div&gt;&lt;div style=&quot;text-wrap-mode: wrap;&quot;&gt;- class : sting&lt;/div&gt;&lt;div style=&quot;text-wrap-mode: wrap;&quot;&gt;- price : currency&lt;/div&gt;&lt;/div&gt;" style="text;strokeColor=none;fillColor=none;align=left;verticalAlign=top;spacingLeft=4;spacingRight=4;overflow=hidden;rotatable=0;points=[[0,0.5],[1,0.5]];portConstraint=eastwest;whiteSpace=wrap;html=1;" parent="BHG2MApi-rZy6z0oUUmJ-23" vertex="1">
          <mxGeometry y="26" width="160" height="184" as="geometry" />
        </mxCell>
        <mxCell id="BHG2MApi-rZy6z0oUUmJ-25" value="" style="line;strokeWidth=1;fillColor=none;align=left;verticalAlign=middle;spacingTop=-1;spacingLeft=3;spacingRight=3;rotatable=0;labelPosition=right;points=[];portConstraint=eastwest;strokeColor=inherit;" parent="BHG2MApi-rZy6z0oUUmJ-23" vertex="1">
          <mxGeometry y="210" width="160" height="60" as="geometry" />
        </mxCell>
        <mxCell id="BHG2MApi-rZy6z0oUUmJ-30" value="Hotels" style="swimlane;fontStyle=1;align=center;verticalAlign=top;childLayout=stackLayout;horizontal=1;startSize=26;horizontalStack=0;resizeParent=1;resizeParentMax=0;resizeLast=0;collapsible=1;marginBottom=0;whiteSpace=wrap;html=1;" parent="WIyWlLk6GJQsqaUBKTNV-1" vertex="1">
          <mxGeometry x="320" y="461" width="160" height="180" as="geometry" />
        </mxCell>
        <mxCell id="BHG2MApi-rZy6z0oUUmJ-31" value="&lt;div style=&quot;text-wrap-mode: nowrap;&quot;&gt;- H_ID : int {key}&lt;/div&gt;&lt;div style=&quot;text-wrap-mode: nowrap;&quot;&gt;- H_Name : string&lt;/div&gt;&lt;div style=&quot;text-wrap-mode: nowrap;&quot;&gt;- H_loc : string&lt;/div&gt;&lt;div style=&quot;text-wrap-mode: nowrap;&quot;&gt;- H_policy : string&lt;/div&gt;&lt;div style=&quot;text-wrap-mode: nowrap;&quot;&gt;- H_Email : string&lt;/div&gt;&lt;div style=&quot;text-wrap-mode: nowrap;&quot;&gt;- H_PhoneNum : string&lt;/div&gt;&lt;div style=&quot;text-wrap-mode: nowrap;&quot;&gt;- H_website : string&lt;/div&gt;" style="text;strokeColor=none;fillColor=none;align=left;verticalAlign=top;spacingLeft=4;spacingRight=4;overflow=hidden;rotatable=0;points=[[0,0.5],[1,0.5]];portConstraint=eastwest;whiteSpace=wrap;html=1;" parent="BHG2MApi-rZy6z0oUUmJ-30" vertex="1">
          <mxGeometry y="26" width="160" height="114" as="geometry" />
        </mxCell>
        <mxCell id="BHG2MApi-rZy6z0oUUmJ-32" value="" style="line;strokeWidth=1;fillColor=none;align=left;verticalAlign=middle;spacingTop=-1;spacingLeft=3;spacingRight=3;rotatable=0;labelPosition=right;points=[];portConstraint=eastwest;strokeColor=inherit;" parent="BHG2MApi-rZy6z0oUUmJ-30" vertex="1">
          <mxGeometry y="140" width="160" height="40" as="geometry" />
        </mxCell>
        <mxCell id="BHG2MApi-rZy6z0oUUmJ-34" value="Room" style="swimlane;fontStyle=1;align=center;verticalAlign=top;childLayout=stackLayout;horizontal=1;startSize=26;horizontalStack=0;resizeParent=1;resizeParentMax=0;resizeLast=0;collapsible=1;marginBottom=0;whiteSpace=wrap;html=1;" parent="WIyWlLk6GJQsqaUBKTNV-1" vertex="1">
          <mxGeometry x="640" y="470" width="160" height="148" as="geometry" />
        </mxCell>
        <mxCell id="BHG2MApi-rZy6z0oUUmJ-35" value="- room_id: int {key}&lt;div&gt;- R_num: int&lt;/div&gt;&lt;div&gt;- R_type: string&lt;/div&gt;&lt;div&gt;- R_availiblity: bool&lt;/div&gt;&lt;div&gt;- R_ameneties: string&lt;/div&gt;&lt;div&gt;- R_price : currency&lt;/div&gt;" style="text;strokeColor=none;fillColor=none;align=left;verticalAlign=top;spacingLeft=4;spacingRight=4;overflow=hidden;rotatable=0;points=[[0,0.5],[1,0.5]];portConstraint=eastwest;whiteSpace=wrap;html=1;" parent="BHG2MApi-rZy6z0oUUmJ-34" vertex="1">
          <mxGeometry y="26" width="160" height="94" as="geometry" />
        </mxCell>
        <mxCell id="BHG2MApi-rZy6z0oUUmJ-36" value="" style="line;strokeWidth=1;fillColor=none;align=left;verticalAlign=middle;spacingTop=-1;spacingLeft=3;spacingRight=3;rotatable=0;labelPosition=right;points=[];portConstraint=eastwest;strokeColor=inherit;" parent="BHG2MApi-rZy6z0oUUmJ-34" vertex="1">
          <mxGeometry y="120" width="160" height="28" as="geometry" />
        </mxCell>
        <mxCell id="BHG2MApi-rZy6z0oUUmJ-38" value="Car_comp&lt;div&gt;&lt;br&gt;&lt;/div&gt;" style="swimlane;fontStyle=1;align=center;verticalAlign=top;childLayout=stackLayout;horizontal=1;startSize=26;horizontalStack=0;resizeParent=1;resizeParentMax=0;resizeLast=0;collapsible=1;marginBottom=0;whiteSpace=wrap;html=1;" parent="WIyWlLk6GJQsqaUBKTNV-1" vertex="1">
          <mxGeometry x="320" y="721" width="160" height="200" as="geometry" />
        </mxCell>
        <mxCell id="BHG2MApi-rZy6z0oUUmJ-39" value="&lt;span style=&quot;background-color: initial;&quot;&gt;-&amp;nbsp;&lt;/span&gt;&lt;span style=&quot;background-color: initial; text-wrap-mode: nowrap;&quot;&gt;Comp_ID: int {key}&lt;/span&gt;&lt;div&gt;&lt;div style=&quot;text-wrap-mode: nowrap;&quot;&gt;- Comp_name: string&lt;/div&gt;&lt;div style=&quot;text-wrap-mode: nowrap;&quot;&gt;- Pichup_Loc: string&lt;/div&gt;&lt;div style=&quot;text-wrap-mode: nowrap;&quot;&gt;- Dropoff_loc: string&lt;/div&gt;&lt;div style=&quot;text-wrap-mode: nowrap;&quot;&gt;- Camp_policy: string&lt;/div&gt;&lt;div style=&quot;text-wrap-mode: nowrap;&quot;&gt;- Comp_Email: string&lt;/div&gt;&lt;div style=&quot;text-wrap-mode: nowrap;&quot;&gt;- Comp_PhoneNum : string&lt;/div&gt;&lt;div style=&quot;text-wrap-mode: nowrap;&quot;&gt;- Comp_Website: string&lt;/div&gt;&lt;/div&gt;&lt;div&gt;&lt;br&gt;&lt;/div&gt;" style="text;strokeColor=none;fillColor=none;align=left;verticalAlign=top;spacingLeft=4;spacingRight=4;overflow=hidden;rotatable=0;points=[[0,0.5],[1,0.5]];portConstraint=eastwest;whiteSpace=wrap;html=1;" parent="BHG2MApi-rZy6z0oUUmJ-38" vertex="1">
          <mxGeometry y="26" width="160" height="124" as="geometry" />
        </mxCell>
        <mxCell id="BHG2MApi-rZy6z0oUUmJ-40" value="" style="line;strokeWidth=1;fillColor=none;align=left;verticalAlign=middle;spacingTop=-1;spacingLeft=3;spacingRight=3;rotatable=0;labelPosition=right;points=[];portConstraint=eastwest;strokeColor=inherit;" parent="BHG2MApi-rZy6z0oUUmJ-38" vertex="1">
          <mxGeometry y="150" width="160" height="50" as="geometry" />
        </mxCell>
        <mxCell id="BHG2MApi-rZy6z0oUUmJ-43" value="Car" style="swimlane;fontStyle=1;align=center;verticalAlign=top;childLayout=stackLayout;horizontal=1;startSize=26;horizontalStack=0;resizeParent=1;resizeParentMax=0;resizeLast=0;collapsible=1;marginBottom=0;whiteSpace=wrap;html=1;" parent="WIyWlLk6GJQsqaUBKTNV-1" vertex="1">
          <mxGeometry x="650" y="695" width="160" height="230" as="geometry" />
        </mxCell>
        <mxCell id="BHG2MApi-rZy6z0oUUmJ-44" value="&lt;div&gt;&lt;span style=&quot;background-color: initial;&quot;&gt;- Car_id: int {key}&amp;nbsp;&lt;/span&gt;&lt;/div&gt;&lt;div&gt;&lt;div&gt;- License_Num: string&lt;/div&gt;&lt;div&gt;- Model: string&lt;/div&gt;&lt;div&gt;- Make: string&lt;/div&gt;&lt;div&gt;- C_Type: string&lt;/div&gt;&lt;div&gt;- C_year: int&lt;/div&gt;&lt;div&gt;- Trans_Type: string&lt;/div&gt;&lt;div&gt;- Num_Seats: int&lt;/div&gt;&lt;div&gt;- Features: string&lt;/div&gt;&lt;div&gt;- Fuel_Type: string&amp;nbsp;&lt;/div&gt;&lt;div&gt;- Rental_Price: currency&lt;/div&gt;&lt;/div&gt;" style="text;strokeColor=none;fillColor=none;align=left;verticalAlign=top;spacingLeft=4;spacingRight=4;overflow=hidden;rotatable=0;points=[[0,0.5],[1,0.5]];portConstraint=eastwest;whiteSpace=wrap;html=1;" parent="BHG2MApi-rZy6z0oUUmJ-43" vertex="1">
          <mxGeometry y="26" width="160" height="174" as="geometry" />
        </mxCell>
        <mxCell id="BHG2MApi-rZy6z0oUUmJ-45" value="" style="line;strokeWidth=1;fillColor=none;align=left;verticalAlign=middle;spacingTop=-1;spacingLeft=3;spacingRight=3;rotatable=0;labelPosition=right;points=[];portConstraint=eastwest;strokeColor=inherit;" parent="BHG2MApi-rZy6z0oUUmJ-43" vertex="1">
          <mxGeometry y="200" width="160" height="30" as="geometry" />
        </mxCell>
        <mxCell id="BHG2MApi-rZy6z0oUUmJ-54" style="edgeStyle=orthogonalEdgeStyle;rounded=0;orthogonalLoop=1;jettySize=auto;html=1;entryX=0;entryY=0.5;entryDx=0;entryDy=0;" parent="WIyWlLk6GJQsqaUBKTNV-1" source="BHG2MApi-rZy6z0oUUmJ-47" target="BHG2MApi-rZy6z0oUUmJ-16" edge="1">
          <mxGeometry relative="1" as="geometry" />
        </mxCell>
        <mxCell id="BHG2MApi-rZy6z0oUUmJ-55" style="edgeStyle=orthogonalEdgeStyle;rounded=0;orthogonalLoop=1;jettySize=auto;html=1;entryX=0;entryY=0.5;entryDx=0;entryDy=0;" parent="WIyWlLk6GJQsqaUBKTNV-1" source="BHG2MApi-rZy6z0oUUmJ-47" target="BHG2MApi-rZy6z0oUUmJ-31" edge="1">
          <mxGeometry relative="1" as="geometry" />
        </mxCell>
        <mxCell id="BHG2MApi-rZy6z0oUUmJ-47" value="&lt;div&gt;&amp;lt;&amp;lt;controller&amp;gt;&amp;gt;&lt;/div&gt;TravelOptionsHandler" style="swimlane;fontStyle=1;align=center;verticalAlign=top;childLayout=stackLayout;horizontal=1;startSize=50;horizontalStack=0;resizeParent=1;resizeParentMax=0;resizeLast=0;collapsible=1;marginBottom=0;whiteSpace=wrap;html=1;" parent="WIyWlLk6GJQsqaUBKTNV-1" vertex="1">
          <mxGeometry y="505" width="160" height="80" as="geometry" />
        </mxCell>
        <mxCell id="BHG2MApi-rZy6z0oUUmJ-49" value="" style="line;strokeWidth=1;fillColor=none;align=left;verticalAlign=middle;spacingTop=-1;spacingLeft=3;spacingRight=3;rotatable=0;labelPosition=right;points=[];portConstraint=eastwest;strokeColor=inherit;" parent="BHG2MApi-rZy6z0oUUmJ-47" vertex="1">
          <mxGeometry y="50" width="160" height="30" as="geometry" />
        </mxCell>
        <mxCell id="BHG2MApi-rZy6z0oUUmJ-51" style="edgeStyle=orthogonalEdgeStyle;rounded=0;orthogonalLoop=1;jettySize=auto;html=1;entryX=0;entryY=0.5;entryDx=0;entryDy=0;" parent="WIyWlLk6GJQsqaUBKTNV-1" source="BHG2MApi-rZy6z0oUUmJ-16" target="BHG2MApi-rZy6z0oUUmJ-24" edge="1">
          <mxGeometry relative="1" as="geometry" />
        </mxCell>
        <mxCell id="BHG2MApi-rZy6z0oUUmJ-52" style="edgeStyle=orthogonalEdgeStyle;rounded=0;orthogonalLoop=1;jettySize=auto;html=1;entryX=0;entryY=0.5;entryDx=0;entryDy=0;" parent="WIyWlLk6GJQsqaUBKTNV-1" source="BHG2MApi-rZy6z0oUUmJ-31" target="BHG2MApi-rZy6z0oUUmJ-35" edge="1">
          <mxGeometry relative="1" as="geometry" />
        </mxCell>
        <mxCell id="BHG2MApi-rZy6z0oUUmJ-53" style="edgeStyle=orthogonalEdgeStyle;rounded=0;orthogonalLoop=1;jettySize=auto;html=1;entryX=0;entryY=0.5;entryDx=0;entryDy=0;" parent="WIyWlLk6GJQsqaUBKTNV-1" source="BHG2MApi-rZy6z0oUUmJ-39" target="BHG2MApi-rZy6z0oUUmJ-44" edge="1">
          <mxGeometry relative="1" as="geometry" />
        </mxCell>
        <mxCell id="BHG2MApi-rZy6z0oUUmJ-56" style="edgeStyle=orthogonalEdgeStyle;rounded=0;orthogonalLoop=1;jettySize=auto;html=1;entryX=0;entryY=0.5;entryDx=0;entryDy=0;" parent="WIyWlLk6GJQsqaUBKTNV-1" source="BHG2MApi-rZy6z0oUUmJ-49" target="BHG2MApi-rZy6z0oUUmJ-39" edge="1">
          <mxGeometry relative="1" as="geometry" />
        </mxCell>
      </root>
    </mxGraphModel>
  </diagram>
</mxfile>
